<svg width="316" height="46" viewBox="0 0 316 46" fill="none" xmlns="http://www.w3.org/2000/svg">
<path d="M61.4102 33.6602C61.7383 33.6602 62.8984 33.2383 64.8906 32.3945C66.9062 31.5273 68.7227 30.5195 70.3398 29.3711C71.9805 28.2227 73.5156 26.8516 74.9453 25.2578C76.3984 23.6406 77.5117 21.9883 78.2852 20.3008C79.082 18.5898 79.8555 17.7344 80.6055 17.7344C81.6836 17.7344 82.2227 18.2852 82.2227 19.3867C82.2227 20.3008 81.3203 22.0234 79.5156 24.5547C77.7109 27.0625 75.7539 29.1953 73.6445 30.9531C71.5586 32.6875 69.0625 34.2227 66.1562 35.5586C63.2734 36.8945 61.2578 37.5625 60.1094 37.5625C59.2422 37.5625 58.5039 37.2578 57.8945 36.6484C57.3086 36.0391 57.0156 35.3008 57.0156 34.4336V11.2656C57.0156 9.90625 57.5781 9.22656 58.7031 9.22656C59.8047 9.22656 60.3555 9.90625 60.3555 11.2656V32.3242C60.3555 33.2148 60.707 33.6602 61.4102 33.6602ZM91.8906 18.2969C92.9688 18.2969 95.0078 18.8594 98.0078 19.9844C99.4844 20.5469 100.223 21.1914 100.223 21.918C100.223 22.4102 100.023 22.832 99.625 23.1836C99.25 23.5117 98.8516 23.6758 98.4297 23.6758C98.125 23.6758 97.1289 23.3711 95.4414 22.7617C93.7773 22.1523 92.5117 21.7422 91.6445 21.5312C90.4961 21.25 89.9219 20.7461 89.9219 20.0195C89.9219 18.8711 90.5781 18.2969 91.8906 18.2969ZM93.8242 8.48828C94.2227 8.48828 95.8398 9.02734 98.6758 10.1055C100.832 10.9258 101.91 11.7578 101.91 12.6016C101.91 13.7266 101.348 14.2891 100.223 14.2891C99.918 14.2891 99.1211 13.9727 97.832 13.3398C96.543 12.707 95.0781 12.1328 93.4375 11.6172C92.4766 11.3125 91.9961 10.8203 91.9961 10.1406C91.9961 9.03906 92.6055 8.48828 93.8242 8.48828ZM116.676 16.2578C117.754 16.2578 118.293 16.7852 118.293 17.8398C118.293 18.7773 117.555 20.5117 116.078 23.043C111.602 30.7539 104.266 35.4531 94.0703 37.1406L93.2266 37.2461C92.0312 37.2461 91.4336 36.6484 91.4336 35.4531C91.4336 34.6094 92.0664 34.0469 93.332 33.7656C104.02 31.9141 111.098 26.8281 114.566 18.5078C115.082 17.0078 115.785 16.2578 116.676 16.2578ZM131.969 18.6836C137.711 18.0742 141.965 17.3945 144.73 16.6445C147.52 15.8711 149.031 15.4844 149.266 15.4844C150.461 15.4844 151.059 16.082 151.059 17.2773C151.059 18.2852 149.57 19.0938 146.594 19.7031C143.641 20.3125 139.059 20.9688 132.848 21.6719L132.426 21.7422L131.969 21.7773V30.1797C131.992 31.7031 132.297 32.7109 132.883 33.2031C133.422 33.7656 134.512 34.0469 136.152 34.0469H150.531C151.844 34.0469 152.5 34.5859 152.5 35.6641C152.5 36.7188 151.844 37.2461 150.531 37.2461H135.449C130.809 37.293 128.559 35.1484 128.699 30.8125V10.7383C128.699 9.40234 129.238 8.73438 130.316 8.73438C131.418 8.73438 131.969 9.40234 131.969 10.7383V18.6836ZM152.078 6.87109C153.062 6.87109 153.906 7.23438 154.609 7.96094C155.312 8.6875 155.664 9.54297 155.664 10.5273C155.664 11.5586 155.301 12.4258 154.574 13.1289C153.848 13.8086 153.004 14.1484 152.043 14.1484C151.012 14.1484 150.145 13.7852 149.441 13.0586C148.738 12.332 148.387 11.4766 148.387 10.4922C148.387 9.48438 148.75 8.62891 149.477 7.92578C150.203 7.22266 151.07 6.87109 152.078 6.87109ZM152.008 8.62891C150.766 8.62891 150.145 9.26172 150.145 10.5273C150.145 11.7695 150.766 12.3906 152.008 12.3906C153.273 12.3906 153.906 11.7578 153.906 10.4922C153.906 9.25 153.273 8.62891 152.008 8.62891ZM177.566 20.6523C178.996 17.9102 180.309 14.5352 181.504 10.5273C181.902 9.16797 182.547 8.48828 183.438 8.48828C184.562 8.48828 185.125 9.01562 185.125 10.0703C185.125 10.75 184.586 12.5078 183.508 15.3438C182.43 18.1562 181.375 20.4883 180.344 22.3398C185.102 25.4102 187.48 27.4609 187.48 28.4922C187.48 29.6406 186.895 30.2148 185.723 30.2148C185.207 30.2148 184.434 29.7461 183.402 28.8086C182.395 27.8477 180.801 26.6406 178.621 25.1875C176.395 28.5625 173.605 31.5625 170.254 34.1875C166.926 36.8125 164.676 38.125 163.504 38.125C162.285 38.125 161.676 37.5508 161.676 36.4023C161.676 35.7695 162.168 35.207 163.152 34.7148C168.379 32.0898 172.621 28.3398 175.879 23.4648C172.48 21.4023 169.633 19.9844 167.336 19.2109C166.047 18.7422 165.402 18.168 165.402 17.4883C165.402 16.4336 165.953 15.9062 167.055 15.9062C167.43 15.9062 168.941 16.5039 171.59 17.6992C174.238 18.8711 176.23 19.8555 177.566 20.6523ZM224.113 21.3555C225.496 21.3555 226.188 21.918 226.188 23.043C226.188 24.1445 225.496 24.6953 224.113 24.6953H197.887C196.504 24.6953 195.812 24.1328 195.812 23.0078C195.812 21.9062 196.504 21.3555 197.887 21.3555H224.113ZM244.188 14.2539L244.328 10.1758C244.328 8.53516 244.879 7.71484 245.98 7.71484C247.105 7.71484 247.668 8.57031 247.668 10.2812L247.457 14.2539H256.984C258.016 14.2539 258.895 14.6055 259.621 15.3086C260.348 16.0117 260.711 17.0078 260.711 18.2969C260.711 20.9219 260.418 24.2852 259.832 28.3867C259.246 32.4648 258.555 35.0781 257.758 36.2266C256.797 37.6094 254.5 38.3008 250.867 38.3008C249.367 38.3008 248.617 37.668 248.617 36.4023C248.617 35.2539 249.227 34.6797 250.445 34.6797L251.043 34.7148L252.133 34.7852C253.82 34.7852 254.875 34.3984 255.297 33.625C255.766 32.8047 256.223 30.625 256.668 27.0859C257.137 23.5469 257.371 20.957 257.371 19.3164C257.371 18.0742 256.656 17.4531 255.227 17.4531H247.211C246.742 21.3203 245.863 24.6133 244.574 27.332C243.309 30.0273 241.492 32.4648 239.125 34.6445C236.781 36.8008 235.129 37.8789 234.168 37.8789C233.09 37.8789 232.551 37.3281 232.551 36.2266C232.551 35.5469 233.148 34.832 234.344 34.082C240.039 30.2148 243.227 24.6719 243.906 17.4531H235.293C233.98 17.4531 233.324 16.9141 233.324 15.8359C233.324 14.7812 233.98 14.2539 235.293 14.2539H244.188ZM296.113 21.3555C297.496 21.3555 298.188 21.918 298.188 23.043C298.188 24.1445 297.496 24.6953 296.113 24.6953H269.887C268.504 24.6953 267.812 24.1328 267.812 23.0078C267.812 21.9062 268.504 21.3555 269.887 21.3555H296.113Z" fill="#F45D48"/>
<path d="M64.8906 32.3945L65.2806 33.3154L65.2858 33.3131L64.8906 32.3945ZM70.3398 29.3711L69.7664 28.5518L69.7608 28.5558L70.3398 29.3711ZM74.9453 25.2578L74.2015 24.5894L74.2009 24.5901L74.9453 25.2578ZM78.2852 20.3008L77.3786 19.8786L77.3761 19.8841L78.2852 20.3008ZM79.5156 24.5547L80.3273 25.1388L80.3299 25.1352L79.5156 24.5547ZM73.6445 30.9531L74.2839 31.7221L74.2847 31.7213L73.6445 30.9531ZM66.1562 35.5586L65.7386 34.65L65.7358 34.6513L66.1562 35.5586ZM57.8945 36.6484L57.1737 37.3415L57.1805 37.3486L57.1874 37.3555L57.8945 36.6484ZM61.4102 34.6602C61.6447 34.6602 61.8976 34.5963 62.085 34.5431C62.3037 34.4811 62.567 34.393 62.8681 34.2835C63.4721 34.0639 64.2785 33.7398 65.2806 33.3153L64.5006 31.4737C63.5106 31.893 62.7408 32.2017 62.1846 32.404C61.9057 32.5054 61.6928 32.5755 61.5395 32.619C61.3549 32.6713 61.3397 32.6602 61.4102 32.6602V34.6602ZM65.2858 33.3131C67.3594 32.421 69.2385 31.3797 70.9188 30.1864L69.7608 28.5558C68.2068 29.6594 66.4531 30.6337 64.4954 31.4759L65.2858 33.3131ZM70.9133 30.1903C72.6207 28.9952 74.2125 27.5723 75.6897 25.9256L74.2009 24.5901C72.8187 26.1309 71.3403 27.4501 69.7664 28.5519L70.9133 30.1903ZM75.6891 25.9262C77.1985 24.2464 78.3722 22.5108 79.1942 20.7174L77.3761 19.8841C76.6512 21.4657 75.5984 23.0348 74.2015 24.5894L75.6891 25.9262ZM79.1917 20.723C79.5711 19.9083 79.9139 19.3683 80.2047 19.0466C80.5031 18.7165 80.6354 18.7344 80.6055 18.7344V16.7344C79.8256 16.7344 79.1961 17.18 78.7211 17.7053C78.2385 18.2392 77.7961 18.9823 77.3787 19.8786L79.1917 20.723ZM80.6055 18.7344C80.9849 18.7344 81.087 18.8299 81.1037 18.8469C81.1243 18.868 81.2227 18.9847 81.2227 19.3867H83.2227C83.2227 18.6871 83.0515 17.9777 82.533 17.448C82.0107 16.9143 81.3042 16.7344 80.6055 16.7344V18.7344ZM81.2227 19.3867C81.2227 19.5826 81.1027 20.0553 80.6601 20.9003C80.2387 21.7046 79.5909 22.7265 78.7014 23.9742L80.3299 25.1352C81.245 23.8516 81.9507 22.7466 82.4317 21.8283C82.8915 20.9506 83.2227 20.1049 83.2227 19.3867H81.2227ZM78.7039 23.9706C76.9424 26.4184 75.0415 28.4872 73.0043 30.1849L74.2847 31.7213C76.4663 29.9034 78.4795 27.7066 80.3273 25.1388L78.7039 23.9706ZM73.0052 30.1842C70.9975 31.8535 68.579 33.3443 65.7386 34.65L66.5739 36.4672C69.546 35.101 72.1197 33.5215 74.2839 31.7221L73.0052 30.1842ZM65.7358 34.6513C64.3137 35.3103 63.1267 35.7945 62.1679 36.1123C61.1908 36.4361 60.5215 36.5625 60.1094 36.5625V38.5625C60.8457 38.5625 61.7585 38.3549 62.797 38.0108C63.8538 37.6605 65.1159 37.1428 66.5767 36.4659L65.7358 34.6513ZM60.1094 36.5625C59.5055 36.5625 59.0222 36.3619 58.6016 35.9413L57.1874 37.3555C57.9857 38.1538 58.9788 38.5625 60.1094 38.5625V36.5625ZM58.6154 35.9553C58.2136 35.5375 58.0156 35.0498 58.0156 34.4336H56.0156C56.0156 35.5518 56.4036 36.5406 57.1737 37.3415L58.6154 35.9553ZM58.0156 34.4336V11.2656H56.0156V34.4336H58.0156ZM58.0156 11.2656C58.0156 10.6989 58.1368 10.4598 58.2079 10.3739C58.249 10.3242 58.3498 10.2266 58.7031 10.2266V8.22656C57.9314 8.22656 57.1885 8.46878 56.6671 9.09876C56.1757 9.6925 56.0156 10.473 56.0156 11.2656H58.0156ZM58.7031 10.2266C59.0376 10.2266 59.1278 10.3195 59.1654 10.3659C59.2357 10.4526 59.3555 10.6951 59.3555 11.2656H61.3555C61.3555 10.4768 61.1999 9.69976 60.7193 9.10674C60.2062 8.47351 59.4702 8.22656 58.7031 8.22656V10.2266ZM59.3555 11.2656V32.3242H61.3555V11.2656H59.3555ZM59.3555 32.3242C59.3555 32.8741 59.4595 33.4711 59.8343 33.9458C60.2446 34.4656 60.8333 34.6602 61.4102 34.6602V32.6602C61.3383 32.6602 61.3218 32.6487 61.3377 32.6554C61.3597 32.6647 61.3865 32.6843 61.404 32.7065C61.4177 32.7239 61.4048 32.7165 61.3885 32.6542C61.3716 32.5902 61.3555 32.4844 61.3555 32.3242H59.3555ZM98.0078 19.9844L98.3638 19.0499L98.3589 19.048L98.0078 19.9844ZM99.625 23.1836L100.284 23.9362L100.287 23.9334L99.625 23.1836ZM95.4414 22.7617L95.0975 23.7007L95.1018 23.7023L95.4414 22.7617ZM91.6445 21.5312L91.4067 22.5025L91.4082 22.5029L91.6445 21.5312ZM98.6758 10.1055L99.0314 9.17082L99.0311 9.17074L98.6758 10.1055ZM93.4375 11.6172L93.1353 12.5704L93.1377 12.5712L93.4375 11.6172ZM116.078 23.043L115.214 22.5391L115.213 22.5409L116.078 23.043ZM94.0703 37.1406L94.1943 38.1329L94.214 38.1304L94.2336 38.1272L94.0703 37.1406ZM93.2266 37.2461V38.2461H93.2888L93.3506 38.2384L93.2266 37.2461ZM93.332 33.7656L93.1613 32.7803L93.1381 32.7843L93.1151 32.7894L93.332 33.7656ZM114.566 18.5078L115.489 18.8926L115.502 18.8631L115.512 18.8329L114.566 18.5078ZM91.8906 19.2969C92.2903 19.2969 92.9634 19.4071 93.9626 19.6827C94.9427 19.9531 96.172 20.364 97.6567 20.9207L98.3589 19.048C96.8436 18.4798 95.5534 18.0469 94.4944 17.7548C93.4545 17.4679 92.5691 17.2969 91.8906 17.2969V19.2969ZM97.6518 20.9189C98.3388 21.1806 98.7689 21.4314 99.0113 21.643C99.1279 21.7447 99.181 21.8202 99.2038 21.8625C99.2234 21.8989 99.2227 21.9136 99.2227 21.918H101.223C101.223 21.1746 100.833 20.5788 100.327 20.1363C99.8307 19.7034 99.1534 19.3507 98.3638 19.0499L97.6518 20.9189ZM99.2227 21.918C99.2227 22.0985 99.166 22.255 98.9634 22.4338L100.287 23.9334C100.881 23.4091 101.223 22.7219 101.223 21.918H99.2227ZM98.9665 22.431C98.739 22.6301 98.5668 22.6758 98.4297 22.6758V24.6758C99.1364 24.6758 99.761 24.3933 100.284 23.9362L98.9665 22.431ZM98.4297 22.6758C98.4774 22.6758 98.4543 22.6812 98.2996 22.645C98.1671 22.614 97.9847 22.5638 97.7466 22.491C97.2717 22.3457 96.6186 22.1236 95.7811 21.8212L95.1018 23.7023C95.9517 24.0092 96.6404 24.2441 97.1616 24.4035C97.4216 24.4831 97.6508 24.5472 97.8435 24.5923C98.014 24.6322 98.2297 24.6758 98.4297 24.6758V22.6758ZM95.7853 21.8227C94.1131 21.2104 92.8046 20.7843 91.8809 20.5596L91.4082 22.5029C92.2188 22.7001 93.4415 23.0943 95.0975 23.7007L95.7853 21.8227ZM91.8824 20.56C91.3868 20.4386 91.13 20.2942 91.0121 20.1908C90.9287 20.1176 90.9219 20.0785 90.9219 20.0195H88.9219C88.9219 20.6871 89.2021 21.2633 89.6929 21.694C90.1493 22.0945 90.7538 22.3427 91.4067 22.5025L91.8824 20.56ZM90.9219 20.0195C90.9219 19.6367 91.0251 19.5217 91.0726 19.4801C91.1456 19.4162 91.3582 19.2969 91.8906 19.2969V17.2969C91.1106 17.2969 90.3388 17.4646 89.7556 17.975C89.1468 18.5076 88.9219 19.2539 88.9219 20.0195H90.9219ZM93.8242 9.48828C93.7753 9.48828 93.8323 9.48562 94.0932 9.5554C94.3174 9.61538 94.6242 9.70943 95.0197 9.84126C95.8088 10.1043 96.9071 10.5029 98.3204 11.0402L99.0311 9.17074C97.6085 8.6299 96.4802 8.21992 95.6522 7.94389C95.2391 7.8062 94.8896 7.6981 94.6099 7.62331C94.367 7.55833 94.0723 7.48828 93.8242 7.48828V9.48828ZM98.3202 11.0401C99.3608 11.436 100.065 11.8076 100.491 12.1364C100.935 12.4793 100.91 12.64 100.91 12.6016H102.91C102.91 11.7194 102.346 11.0422 101.713 10.5531C101.06 10.0498 100.147 9.59525 99.0314 9.17082L98.3202 11.0401ZM100.91 12.6016C100.91 13.0099 100.809 13.1325 100.781 13.1601C100.754 13.1877 100.631 13.2891 100.223 13.2891V15.2891C100.939 15.2891 101.66 15.1092 102.195 14.5743C102.73 14.0394 102.91 13.3182 102.91 12.6016H100.91ZM100.223 13.2891C100.289 13.2891 100.29 13.3008 100.178 13.2686C100.083 13.2413 99.9476 13.1946 99.7655 13.1223C99.4021 12.978 98.9071 12.7536 98.2727 12.4422L97.3914 14.2375C98.046 14.5589 98.594 14.8091 99.0275 14.9812C99.2438 15.0671 99.4453 15.139 99.6258 15.1909C99.7891 15.2378 100.004 15.2891 100.223 15.2891V13.2891ZM98.2727 12.4422C96.9303 11.7832 95.4171 11.1911 93.7373 10.6632L93.1377 12.5712C94.7391 13.0745 96.1556 13.6309 97.3914 14.2375L98.2727 12.4422ZM93.7397 10.664C93.3482 10.5398 93.1564 10.4075 93.072 10.321C93.0117 10.2592 92.9961 10.2159 92.9961 10.1406H90.9961C90.9961 10.745 91.2207 11.2877 91.6409 11.7181C92.0369 12.1238 92.5659 12.3899 93.1353 12.5704L93.7397 10.664ZM92.9961 10.1406C92.9961 9.77154 93.0935 9.67047 93.1237 9.64324C93.173 9.59865 93.3454 9.48828 93.8242 9.48828V7.48828C93.0843 7.48828 92.3426 7.6533 91.7826 8.15949C91.2033 8.68304 90.9961 9.40815 90.9961 10.1406H92.9961ZM116.676 17.2578C117.066 17.2578 117.174 17.3533 117.189 17.3682C117.2 17.379 117.293 17.4723 117.293 17.8398H119.293C119.293 17.1527 119.116 16.455 118.588 15.9385C118.064 15.426 117.364 15.2578 116.676 15.2578V17.2578ZM117.293 17.8398C117.293 18.0966 117.178 18.6089 116.819 19.4521C116.473 20.2658 115.942 21.2922 115.214 22.5391L116.942 23.5468C117.691 22.2625 118.267 21.1561 118.659 20.2354C119.039 19.3443 119.293 18.5206 119.293 17.8398H117.293ZM115.213 22.5409C110.911 29.9512 103.86 34.5066 93.907 36.154L94.2336 38.1272C104.671 36.3996 112.292 31.5567 116.943 23.545L115.213 22.5409ZM93.9463 36.1483L93.1025 36.2538L93.3506 38.2384L94.1943 38.1329L93.9463 36.1483ZM93.2266 36.2461C92.7831 36.2461 92.6341 36.1359 92.5889 36.0907C92.5438 36.0456 92.4336 35.8966 92.4336 35.4531H90.4336C90.4336 36.2049 90.6222 36.9525 91.1747 37.505C91.7272 38.0575 92.4748 38.2461 93.2266 38.2461V36.2461ZM92.4336 35.4531C92.4336 35.318 92.4688 35.2381 92.5726 35.1458C92.7116 35.0223 93.0015 34.8635 93.549 34.7418L93.1151 32.7894C92.3969 32.949 91.7376 33.2121 91.2438 33.651C90.7148 34.1213 90.4336 34.7445 90.4336 35.4531H92.4336ZM93.5027 34.7509C104.448 32.8548 111.861 27.5963 115.489 18.8926L113.643 18.123C110.334 26.0599 103.591 30.9734 93.1613 32.7803L93.5027 34.7509ZM115.512 18.8329C116.008 17.39 116.489 17.2578 116.676 17.2578V15.2578C115.081 15.2578 114.156 16.6257 113.621 18.1827L115.512 18.8329ZM131.969 18.6836H130.969V19.7953L132.074 19.678L131.969 18.6836ZM144.73 16.6445L144.992 17.6097L144.998 17.6082L144.73 16.6445ZM146.594 19.7031L146.393 18.7234L146.392 18.7238L146.594 19.7031ZM132.848 21.6719L132.735 20.6782L132.709 20.6812L132.683 20.6855L132.848 21.6719ZM132.426 21.7422L132.502 22.7392L132.547 22.7359L132.59 22.7286L132.426 21.7422ZM131.969 21.7773L131.892 20.7803L130.969 20.8513V21.7773H131.969ZM131.969 30.1797H130.969V30.1874L130.969 30.1951L131.969 30.1797ZM132.883 33.2031L133.605 32.5112L133.567 32.4722L133.526 32.4374L132.883 33.2031ZM135.449 37.2461V36.246L135.439 36.2461L135.449 37.2461ZM128.699 30.8125L129.699 30.8449L129.699 30.8287V30.8125H128.699ZM154.574 13.1289L155.257 13.8592L155.264 13.8534L155.27 13.8475L154.574 13.1289ZM132.074 19.678C137.828 19.0675 142.147 18.3814 144.992 17.6097L144.469 15.6794C141.783 16.4077 137.594 17.081 131.863 17.6892L132.074 19.678ZM144.998 17.6082C146.39 17.222 147.458 16.9341 148.204 16.7432C148.578 16.6476 148.864 16.5781 149.067 16.5332C149.168 16.5107 149.241 16.4961 149.29 16.4876C149.359 16.4755 149.332 16.4844 149.266 16.4844V14.4844C149.141 14.4844 149.015 14.5053 148.946 14.5174C148.856 14.5331 148.75 14.5548 148.634 14.5805C148.4 14.6323 148.09 14.7079 147.708 14.8056C146.943 15.0015 145.86 15.2936 144.463 15.6809L144.998 17.6082ZM149.266 16.4844C149.709 16.4844 149.858 16.5946 149.903 16.6397C149.948 16.6849 150.059 16.8338 150.059 17.2773H152.059C152.059 16.5255 151.87 15.778 151.317 15.2255C150.765 14.673 150.017 14.4844 149.266 14.4844V16.4844ZM150.059 17.2773C150.059 17.278 150.059 17.2783 150.059 17.2782C150.059 17.2782 150.059 17.2781 150.059 17.2781C150.059 17.278 150.059 17.278 150.059 17.278C150.059 17.278 150.059 17.2781 150.059 17.2783C150.058 17.2785 150.058 17.2788 150.058 17.2792C150.058 17.28 150.058 17.2816 150.057 17.2839C150.053 17.2924 150.042 17.3188 150.006 17.3621C149.93 17.4552 149.77 17.5955 149.465 17.761C148.851 18.0948 147.848 18.4255 146.393 18.7234L146.794 20.6828C148.316 20.3714 149.546 19.9931 150.42 19.5183C151.257 19.0636 152.059 18.3502 152.059 17.2773H150.059ZM146.392 18.7238C143.485 19.3235 138.941 19.9757 132.735 20.6782L132.96 22.6655C139.176 21.9618 143.796 21.3015 146.796 20.6825L146.392 18.7238ZM132.683 20.6855L132.261 20.7558L132.59 22.7286L133.012 22.6583L132.683 20.6855ZM132.349 20.7451L131.892 20.7803L132.045 22.7744L132.502 22.7392L132.349 20.7451ZM130.969 21.7773V30.1797H132.969V21.7773H130.969ZM130.969 30.1951C130.993 31.7531 131.291 33.1723 132.24 33.9688L133.526 32.4374C133.302 32.2496 132.992 31.6531 132.969 30.1643L130.969 30.1951ZM132.161 33.895C132.604 34.3575 133.205 34.6367 133.855 34.8042C134.509 34.9731 135.282 35.0469 136.152 35.0469V33.0469C135.382 33.0469 134.79 32.98 134.354 32.8677C133.914 32.754 133.701 32.6113 133.605 32.5112L132.161 33.895ZM136.152 35.0469H150.531V33.0469H136.152V35.0469ZM150.531 35.0469C151.076 35.0469 151.299 35.1627 151.373 35.2239C151.41 35.2541 151.5 35.3367 151.5 35.6641H153.5C153.5 34.9133 153.262 34.1873 152.643 33.6784C152.061 33.2006 151.299 33.0469 150.531 33.0469V35.0469ZM151.5 35.6641C151.5 35.9722 151.415 36.0442 151.381 36.0711C151.306 36.1316 151.08 36.2461 150.531 36.2461V38.2461C151.295 38.2461 152.053 38.0969 152.634 37.6301C153.257 37.1297 153.5 36.4106 153.5 35.6641H151.5ZM150.531 36.2461H135.449V38.2461H150.531V36.2461ZM135.439 36.2461C133.253 36.2682 131.833 35.7699 130.971 34.949C130.124 34.1414 129.634 32.8448 129.699 30.8449L127.7 30.7801C127.624 33.1162 128.189 35.0598 129.591 36.3967C130.98 37.7203 133.005 38.2708 135.459 38.246L135.439 36.2461ZM129.699 30.8125V10.7383H127.699V30.8125H129.699ZM129.699 10.7383C129.699 10.1787 129.816 9.94434 129.882 9.86337C129.914 9.82339 129.995 9.73438 130.316 9.73438V7.73438C129.56 7.73438 128.832 7.97934 128.325 8.60733C127.852 9.19434 127.699 9.96193 127.699 10.7383H129.699ZM130.316 9.73438C130.657 9.73438 130.748 9.82827 130.784 9.87153C130.85 9.95174 130.969 10.1826 130.969 10.7383H132.969C132.969 9.95804 132.812 9.18694 132.327 8.59917C131.812 7.97447 131.078 7.73438 130.316 7.73438V9.73438ZM130.969 10.7383V18.6836H132.969V10.7383H130.969ZM152.078 7.87109C152.783 7.87109 153.37 8.11852 153.891 8.65636L155.328 7.26552C154.442 6.35023 153.342 5.87109 152.078 5.87109V7.87109ZM153.891 8.65636C154.419 9.20205 154.664 9.81025 154.664 10.5273H156.664C156.664 9.27569 156.206 8.17295 155.328 7.26552L153.891 8.65636ZM154.664 10.5273C154.664 11.2938 154.406 11.8998 153.879 12.4103L155.27 13.8475C156.195 12.9518 156.664 11.8234 156.664 10.5273H154.664ZM153.891 12.3986C153.343 12.9118 152.74 13.1484 152.043 13.1484V15.1484C153.267 15.1484 154.353 14.7054 155.257 13.8592L153.891 12.3986ZM152.043 13.1484C151.277 13.1484 150.671 12.8907 150.16 12.3632L148.723 13.754C149.619 14.6796 150.747 15.1484 152.043 15.1484V13.1484ZM150.16 12.3632C149.632 11.8175 149.387 11.2093 149.387 10.4922H147.387C147.387 11.7438 147.845 12.8466 148.723 13.754L150.16 12.3632ZM149.387 10.4922C149.387 9.75627 149.639 9.15981 150.172 8.64438L148.781 7.20718C147.861 8.098 147.387 9.21248 147.387 10.4922H149.387ZM150.172 8.64438C150.713 8.12109 151.331 7.87109 152.078 7.87109V5.87109C150.81 5.87109 149.694 6.32422 148.781 7.20718L150.172 8.64438ZM152.008 7.62891C151.228 7.62891 150.46 7.82891 149.897 8.40305C149.337 8.97373 149.145 9.74503 149.145 10.5273H151.145C151.145 10.044 151.263 9.86612 151.324 9.80398C151.382 9.7453 151.546 9.62891 152.008 9.62891V7.62891ZM149.145 10.5273C149.145 11.3026 149.339 12.0677 149.903 12.6319C150.467 13.1961 151.233 13.3906 152.008 13.3906V11.3906C151.541 11.3906 151.374 11.2746 151.317 11.2177C151.261 11.1608 151.145 10.9943 151.145 10.5273H149.145ZM152.008 13.3906C152.795 13.3906 153.569 13.1932 154.139 12.6231C154.709 12.053 154.906 11.2791 154.906 10.4922H152.906C152.906 10.9709 152.787 11.1462 152.725 11.2089C152.662 11.2716 152.486 11.3906 152.008 11.3906V13.3906ZM154.906 10.4922C154.906 9.71216 154.706 8.94454 154.132 8.38104C153.561 7.82093 152.79 7.62891 152.008 7.62891V9.62891C152.491 9.62891 152.669 9.74743 152.731 9.80841C152.79 9.866 152.906 10.03 152.906 10.4922H154.906ZM177.566 20.6523L177.054 21.5112L177.964 22.0536L178.453 21.1147L177.566 20.6523ZM181.504 10.5273L182.462 10.8132L182.464 10.8086L181.504 10.5273ZM183.508 15.3438L184.442 15.7017L184.443 15.6991L183.508 15.3438ZM180.344 22.3398L179.47 21.8533L179.014 22.672L179.802 23.1801L180.344 22.3398ZM183.402 28.8086L182.712 29.5323L182.721 29.5405L182.73 29.5485L183.402 28.8086ZM178.621 25.1875L179.176 24.3554L178.34 23.7981L177.786 24.6368L178.621 25.1875ZM170.254 34.1875L169.637 33.4002L169.635 33.4023L170.254 34.1875ZM163.152 34.7148L163.6 35.6093L163.601 35.6085L163.152 34.7148ZM175.879 23.4648L176.71 24.0205L177.291 23.1519L176.398 22.61L175.879 23.4648ZM167.336 19.2109L166.994 20.1507L167.005 20.1548L167.017 20.1586L167.336 19.2109ZM171.59 17.6992L171.178 18.6107L171.185 18.6137L171.59 17.6992ZM178.453 21.1147C179.92 18.3003 181.255 14.8622 182.462 10.8131L180.546 10.2415C179.363 14.2081 178.072 17.52 176.68 20.19L178.453 21.1147ZM182.464 10.8086C182.639 10.2099 182.84 9.86691 183.012 9.68614C183.156 9.53387 183.282 9.48828 183.438 9.48828V7.48828C182.702 7.48828 182.061 7.78254 181.561 8.30996C181.087 8.80887 180.767 9.48545 180.544 10.2461L182.464 10.8086ZM183.438 9.48828C183.861 9.48828 183.993 9.58888 184.019 9.61333C184.033 9.62639 184.125 9.71422 184.125 10.0703H186.125C186.125 9.37172 185.936 8.66853 185.387 8.15425C184.851 7.65135 184.139 7.48828 183.438 7.48828V9.48828ZM184.125 10.0703C184.125 10.2393 184.038 10.7123 183.765 11.6052C183.504 12.4542 183.109 13.5796 182.573 14.9884L184.443 15.6991C184.985 14.2719 185.398 13.1005 185.677 12.1916C185.942 11.3268 186.125 10.581 186.125 10.0703H184.125ZM182.574 14.9858C181.506 17.7709 180.471 20.0563 179.47 21.8533L181.217 22.8264C182.279 20.9203 183.353 18.5416 184.442 15.7017L182.574 14.9858ZM179.802 23.1801C182.167 24.7067 183.906 25.9577 185.043 26.9381C185.614 27.43 186.004 27.829 186.243 28.1386C186.509 28.4829 186.48 28.5799 186.48 28.4922H188.48C188.48 27.8889 188.155 27.3428 187.826 26.9166C187.47 26.4557 186.968 25.9567 186.349 25.4233C185.108 24.3529 183.278 23.0433 180.886 21.4996L179.802 23.1801ZM186.48 28.4922C186.48 28.9071 186.376 29.0357 186.341 29.07C186.302 29.1078 186.159 29.2148 185.723 29.2148V31.2148C186.458 31.2148 187.194 31.0347 187.741 30.4984C188.292 29.9584 188.48 29.2257 188.48 28.4922H186.48ZM185.723 29.2148C185.739 29.2148 185.607 29.2099 185.274 29.0081C184.964 28.8199 184.566 28.5146 184.075 28.0687L182.73 29.5485C183.27 30.04 183.775 30.438 184.238 30.7185C184.678 30.9854 185.191 31.2148 185.723 31.2148V29.2148ZM184.092 28.0849C183.021 27.0631 181.37 25.8179 179.176 24.3554L178.066 26.0196C180.232 27.4633 181.768 28.6322 182.712 29.5323L184.092 28.0849ZM177.786 24.6368C175.622 27.917 172.908 30.8383 169.637 33.4002L170.871 34.9748C174.303 32.2867 177.167 29.208 179.456 25.7382L177.786 24.6368ZM169.635 33.4023C167.988 34.7015 166.634 35.654 165.566 36.2768C164.45 36.9283 163.799 37.125 163.504 37.125V39.125C164.381 39.125 165.441 38.6654 166.574 38.0044C167.756 37.3148 169.192 36.2985 170.873 34.9727L169.635 33.4023ZM163.504 37.125C163.034 37.125 162.868 37.0133 162.819 36.9665C162.78 36.9303 162.676 36.8067 162.676 36.4023H160.676C160.676 37.1464 160.876 37.8841 161.447 38.4221C162.007 38.9496 162.755 39.125 163.504 39.125V37.125ZM162.676 36.4023C162.676 36.3716 162.692 36.0628 163.6 35.6093L162.705 33.8204C161.644 34.3512 160.676 35.1675 160.676 36.4023H162.676ZM163.601 35.6085C168.983 32.9056 173.357 29.039 176.71 24.0205L175.047 22.9092C171.886 27.6407 167.775 31.2741 162.704 33.8212L163.601 35.6085ZM176.398 22.61C172.971 20.5302 170.052 19.0703 167.655 18.2632L167.017 20.1586C169.214 20.8985 171.99 22.2745 175.36 24.3197L176.398 22.61ZM167.678 18.2711C167.09 18.0575 166.739 17.85 166.551 17.6821C166.462 17.6026 166.426 17.5468 166.413 17.5211C166.402 17.5004 166.402 17.4932 166.402 17.4883H164.402C164.402 18.1866 164.747 18.7534 165.221 19.1754C165.677 19.5817 166.293 19.8956 166.994 20.1507L167.678 18.2711ZM166.402 17.4883C166.402 17.1264 166.495 17.036 166.507 17.0241C166.528 17.0044 166.647 16.9062 167.055 16.9062V14.9062C166.36 14.9062 165.654 15.0718 165.124 15.5794C164.585 16.0949 164.402 16.7954 164.402 17.4883H166.402ZM167.055 16.9062C166.973 16.9062 166.999 16.8932 167.247 16.9716C167.451 17.0363 167.734 17.1389 168.102 17.2845C168.836 17.5746 169.859 18.0153 171.178 18.6107L172.001 16.7878C170.672 16.1878 169.615 15.732 168.837 15.4245C168.45 15.2712 168.119 15.1497 167.851 15.065C167.627 14.994 167.324 14.9062 167.055 14.9062V16.9062ZM171.185 18.6137C173.822 19.7806 175.771 20.7456 177.054 21.5112L178.079 19.7935C176.69 18.9653 174.654 17.9616 171.994 16.7847L171.185 18.6137ZM224.113 22.3555C224.695 22.3555 224.945 22.4779 225.038 22.5531C225.091 22.5961 225.188 22.6954 225.188 23.043H227.188C227.188 22.2655 226.939 21.5211 226.3 21.0016C225.701 20.5143 224.915 20.3555 224.113 20.3555V22.3555ZM225.188 23.043C225.188 23.3716 225.096 23.4604 225.046 23.5001C224.953 23.5743 224.699 23.6953 224.113 23.6953V25.6953C224.911 25.6953 225.694 25.5409 226.292 25.0644C226.934 24.5533 227.188 23.8159 227.188 23.043H225.188ZM224.113 23.6953H197.887V25.6953H224.113V23.6953ZM197.887 23.6953C197.305 23.6953 197.055 23.5729 196.962 23.4977C196.909 23.4547 196.812 23.3554 196.812 23.0078H194.812C194.812 23.7853 195.061 24.5297 195.7 25.0491C196.299 25.5365 197.085 25.6953 197.887 25.6953V23.6953ZM196.812 23.0078C196.812 22.6792 196.904 22.5904 196.954 22.5507C197.047 22.4765 197.301 22.3555 197.887 22.3555V20.3555C197.089 20.3555 196.306 20.5099 195.708 20.9864C195.066 21.4975 194.812 22.2349 194.812 23.0078H196.812ZM197.887 22.3555H224.113V20.3555H197.887V22.3555ZM244.188 14.2539V15.2539H245.154L245.187 14.2884L244.188 14.2539ZM244.328 10.1758L245.328 10.2102L245.328 10.193V10.1758H244.328ZM247.668 10.2812L248.667 10.3343L248.668 10.3078V10.2812H247.668ZM247.457 14.2539L246.458 14.2009L246.403 15.2539H247.457V14.2539ZM259.832 28.3867L260.822 28.5289L260.822 28.5281L259.832 28.3867ZM257.758 36.2266L258.579 36.7972L258.579 36.7966L257.758 36.2266ZM250.445 34.6797L250.504 33.6814L250.475 33.6797H250.445V34.6797ZM251.043 34.7148L251.107 33.7169L251.102 33.7166L251.043 34.7148ZM252.133 34.7852L252.068 35.7831L252.101 35.7852H252.133V34.7852ZM255.297 33.625L254.429 33.1289L254.424 33.1375L254.419 33.1461L255.297 33.625ZM256.668 27.0859L255.677 26.9546L255.676 26.9611L256.668 27.0859ZM247.211 17.4531V16.4531H246.325L246.218 17.3328L247.211 17.4531ZM244.574 27.332L243.671 26.9036L243.669 26.907L244.574 27.332ZM239.125 34.6445L239.802 35.3805L239.802 35.3802L239.125 34.6445ZM234.344 34.082L234.875 34.9291L234.891 34.9195L234.906 34.9093L234.344 34.082ZM243.906 17.4531L244.902 17.5469L245.005 16.4531H243.906V17.4531ZM245.187 14.2884L245.328 10.2102L243.329 10.1413L243.188 14.2194L245.187 14.2884ZM245.328 10.1758C245.328 9.43591 245.458 9.0564 245.571 8.88751C245.637 8.78929 245.718 8.71484 245.98 8.71484V6.71484C245.141 6.71484 244.396 7.05055 243.911 7.77264C243.474 8.42407 243.328 9.27503 243.328 10.1758H245.328ZM245.98 8.71484C246.246 8.71484 246.335 8.79074 246.411 8.90585C246.534 9.09417 246.668 9.50358 246.668 10.2812H248.668C248.668 9.34798 248.52 8.47419 248.082 7.80704C247.595 7.06668 246.84 6.71484 245.98 6.71484V8.71484ZM246.669 10.2282L246.458 14.2009L248.456 14.3069L248.667 10.3343L246.669 10.2282ZM247.457 15.2539H256.984V13.2539H247.457V15.2539ZM256.984 15.2539C257.762 15.2539 258.39 15.5085 258.926 16.0272L260.317 14.59C259.399 13.7024 258.269 13.2539 256.984 13.2539V15.2539ZM258.926 16.0272C259.408 16.4935 259.711 17.2002 259.711 18.2969H261.711C261.711 16.8155 261.288 15.5299 260.317 14.59L258.926 16.0272ZM259.711 18.2969C259.711 20.8556 259.425 24.1671 258.842 28.2453L260.822 28.5281C261.411 24.4032 261.711 20.9881 261.711 18.2969H259.711ZM258.842 28.2445C258.552 30.2629 258.239 31.8942 257.907 33.1495C257.569 34.4285 257.232 35.23 256.936 35.6565L258.579 36.7966C259.08 36.0746 259.488 34.9954 259.841 33.661C260.2 32.3031 260.526 30.5887 260.822 28.5289L258.842 28.2445ZM256.937 35.6559C256.63 36.0974 256.048 36.5171 255.026 36.8247C254.006 37.1317 252.631 37.3008 250.867 37.3008V39.3008C252.736 39.3008 254.326 39.1241 255.603 38.7398C256.878 38.356 257.925 37.7386 258.579 36.7972L256.937 35.6559ZM250.867 37.3008C250.234 37.3008 249.945 37.1636 249.825 37.0619C249.737 36.9876 249.617 36.8323 249.617 36.4023H247.617C247.617 37.238 247.873 38.0319 248.535 38.5905C249.164 39.1216 250.001 39.3008 250.867 39.3008V37.3008ZM249.617 36.4023C249.617 35.998 249.722 35.8743 249.76 35.8381C249.81 35.7914 249.976 35.6797 250.445 35.6797V33.6797C249.696 33.6797 248.948 33.8551 248.388 34.3826C247.817 34.9206 247.617 35.6583 247.617 36.4023H249.617ZM250.387 35.678L250.984 35.7131L251.102 33.7166L250.504 33.6814L250.387 35.678ZM250.979 35.7128L252.068 35.7831L252.197 33.7872L251.107 33.7169L250.979 35.7128ZM252.133 35.7852C253.858 35.7852 255.463 35.4092 256.175 34.1039L254.419 33.1461C254.287 33.3877 253.783 33.7852 252.133 33.7852V35.7852ZM256.165 34.1211C256.485 33.5609 256.741 32.6713 256.97 31.5802C257.206 30.4529 257.436 28.9933 257.66 27.2108L255.676 26.9611C255.455 28.7176 255.233 30.1174 255.012 31.1698C254.784 32.2584 254.577 32.8688 254.429 33.1289L256.165 34.1211ZM257.659 27.2172C258.129 23.673 258.371 21.0275 258.371 19.3164H256.371C256.371 20.8865 256.145 23.4208 255.677 26.9546L257.659 27.2172ZM258.371 19.3164C258.371 18.5017 258.13 17.7195 257.491 17.1641C256.878 16.6319 256.064 16.4531 255.227 16.4531V18.4531C255.819 18.4531 256.077 18.5848 256.179 18.6738C256.255 18.7394 256.371 18.8889 256.371 19.3164H258.371ZM255.227 16.4531H247.211V18.4531H255.227V16.4531ZM246.218 17.3328C245.759 21.1229 244.902 24.3059 243.671 26.9036L245.478 27.7605C246.824 24.9206 247.726 21.5177 248.204 17.5735L246.218 17.3328ZM243.669 26.907C242.463 29.4758 240.727 31.8099 238.448 33.9089L239.802 35.3802C242.257 33.1198 244.154 30.5789 245.479 27.7571L243.669 26.907ZM238.448 33.9086C237.295 34.9691 236.342 35.7365 235.581 36.2328C234.778 36.7568 234.337 36.8789 234.168 36.8789V38.8789C234.96 38.8789 235.825 38.462 236.674 37.9078C237.566 37.326 238.611 36.4763 239.802 35.3805L238.448 33.9086ZM234.168 36.8789C233.789 36.8789 233.686 36.7834 233.67 36.7664C233.649 36.7453 233.551 36.6285 233.551 36.2266H231.551C231.551 36.9262 231.722 37.6355 232.24 38.1653C232.763 38.699 233.469 38.8789 234.168 38.8789V36.8789ZM233.551 36.2266C233.551 36.1953 233.562 36.0661 233.766 35.8221C233.973 35.5753 234.326 35.2739 234.875 34.9291L233.812 33.235C233.167 33.6401 232.623 34.0712 232.232 34.5392C231.838 35.0101 231.551 35.5781 231.551 36.2266H233.551ZM234.906 34.9093C240.862 30.8646 244.196 25.0445 244.902 17.5469L242.911 17.3594C242.257 24.2993 239.216 29.5651 233.782 33.2547L234.906 34.9093ZM243.906 16.4531H235.293V18.4531H243.906V16.4531ZM235.293 16.4531C234.748 16.4531 234.526 16.3373 234.451 16.2761C234.414 16.2459 234.324 16.1633 234.324 15.8359H232.324C232.324 16.5867 232.562 17.3127 233.182 17.8216C233.763 18.2994 234.525 18.4531 235.293 18.4531V16.4531ZM234.324 15.8359C234.324 15.5278 234.409 15.4558 234.443 15.4289C234.518 15.3684 234.744 15.2539 235.293 15.2539V13.2539C234.529 13.2539 233.771 13.4031 233.19 13.8699C232.567 14.3703 232.324 15.0894 232.324 15.8359H234.324ZM235.293 15.2539H244.188V13.2539H235.293V15.2539ZM296.113 22.3555C296.695 22.3555 296.945 22.4779 297.038 22.5531C297.091 22.5961 297.188 22.6954 297.188 23.043H299.188C299.188 22.2655 298.939 21.5211 298.3 21.0016C297.701 20.5143 296.915 20.3555 296.113 20.3555V22.3555ZM297.188 23.043C297.188 23.3716 297.096 23.4604 297.046 23.5001C296.953 23.5743 296.699 23.6953 296.113 23.6953V25.6953C296.911 25.6953 297.694 25.5409 298.292 25.0644C298.934 24.5533 299.188 23.8159 299.188 23.043H297.188ZM296.113 23.6953H269.887V25.6953H296.113V23.6953ZM269.887 23.6953C269.305 23.6953 269.055 23.5729 268.962 23.4977C268.909 23.4547 268.812 23.3554 268.812 23.0078H266.812C266.812 23.7853 267.061 24.5297 267.7 25.0491C268.299 25.5365 269.085 25.6953 269.887 25.6953V23.6953ZM268.812 23.0078C268.812 22.6792 268.904 22.5904 268.954 22.5507C269.047 22.4765 269.301 22.3555 269.887 22.3555V20.3555C269.089 20.3555 268.306 20.5099 267.708 20.9864C267.066 21.4975 266.812 22.2349 266.812 23.0078H268.812ZM269.887 22.3555H296.113V20.3555H269.887V22.3555Z" fill="#F45D48"/>
<path d="M23.4127 32.0769H35.4563" stroke="#F45D48" stroke-width="4" stroke-linecap="round" stroke-linejoin="round"/>
<path d="M26.8538 38.5385H32.0153" stroke="#F45D48" stroke-width="4" stroke-linecap="round"/>
<path d="M28.5742 9.07692V2.61538" stroke="#078080" stroke-width="4" stroke-linecap="round" stroke-linejoin="round"/>
<path d="M28.7662 10.7259L19.9717 5.84615" stroke="#078080" stroke-width="4" stroke-linecap="round" stroke-linejoin="round"/>
<path d="M37.0475 5.84616L28.5743 10.7259" stroke="#078080" stroke-width="4" stroke-linecap="round" stroke-linejoin="round"/>
<path d="M29.5302 43.3846C11.5018 12.6923 8.33197 12.6923 29.6293 12.6923C50.5303 12.6923 47.1624 12.6923 29.5302 43.3846Z" stroke="#F45D48" stroke-width="4" stroke-linecap="round" stroke-linejoin="round"/>
</svg>
